<svg width="26" height="20" viewBox="0 0 26 20" fill="none" xmlns="http://www.w3.org/2000/svg">
<path d="M16.75 5.625H13.9375V14.375H14.5625C14.8111 14.375 15.0496 14.4738 15.2254 14.6496C15.4012 14.8254 15.5 15.0639 15.5 15.3125C15.5 15.5611 15.4012 15.7996 15.2254 15.9754C15.0496 16.1512 14.8111 16.25 14.5625 16.25H11.4375C11.1889 16.25 10.9504 16.1512 10.7746 15.9754C10.5988 15.7996 10.5 15.5611 10.5 15.3125C10.5 15.0639 10.5988 14.8254 10.7746 14.6496C10.9504 14.4738 11.1889 14.375 11.4375 14.375H12.0625V5.625H9.25V6.5625C9.25 6.81114 9.15123 7.0496 8.97541 7.22541C8.7996 7.40123 8.56114 7.5 8.3125 7.5C8.06386 7.5 7.8254 7.40123 7.64959 7.22541C7.47377 7.0496 7.375 6.81114 7.375 6.5625V4.6875C7.375 4.43886 7.47377 4.2004 7.64959 4.02459C7.8254 3.84877 8.06386 3.75 8.3125 3.75H17.6875C17.9361 3.75 18.1746 3.84877 18.3504 4.02459C18.5262 4.2004 18.625 4.43886 18.625 4.6875V6.5625C18.625 6.81114 18.5262 7.0496 18.3504 7.22541C18.1746 7.40123 17.9361 7.5 17.6875 7.5C17.4389 7.5 17.2004 7.40123 17.0246 7.22541C16.8488 7.0496 16.75 6.81114 16.75 6.5625V5.625Z" fill="#9ECFA7"/>
<path d="M5.1875 0C3.9443 0 2.75201 0.49386 1.87294 1.37294C0.99386 2.25201 0.5 3.4443 0.5 4.6875V15.3125C0.5 16.5557 0.99386 17.748 1.87294 18.6271C2.75201 19.5061 3.9443 20 5.1875 20H20.8125C22.0557 20 23.248 19.5061 24.1271 18.6271C25.0061 17.748 25.5 16.5557 25.5 15.3125V4.6875C25.5 3.4443 25.0061 2.25201 24.1271 1.37294C23.248 0.49386 22.0557 0 20.8125 0H5.1875ZM2.375 4.6875C2.375 3.94158 2.67132 3.22621 3.19876 2.69876C3.72621 2.17132 4.44158 1.875 5.1875 1.875H20.8125C21.5584 1.875 22.2738 2.17132 22.8012 2.69876C23.3287 3.22621 23.625 3.94158 23.625 4.6875V15.3125C23.625 16.0584 23.3287 16.7738 22.8012 17.3012C22.2738 17.8287 21.5584 18.125 20.8125 18.125H5.1875C4.44158 18.125 3.72621 17.8287 3.19876 17.3012C2.67132 16.7738 2.375 16.0584 2.375 15.3125V4.6875Z" fill="#9ECFA7"/>
</svg>
