<svg width="28" height="8" viewBox="0 0 28 8" fill="none" xmlns="http://www.w3.org/2000/svg">
<path d="M14.0015 0.700012C13.5679 0.700012 13.1386 0.785408 12.7381 0.951324C12.3375 1.11724 11.9736 1.36043 11.667 1.667C11.3604 1.97357 11.1172 2.33753 10.9513 2.73808C10.7854 3.13864 10.7 3.56795 10.7 4.00151C10.7 4.43507 10.7854 4.86439 10.9513 5.26494C11.1172 5.6655 11.3604 6.02945 11.667 6.33602C11.9736 6.6426 12.3375 6.88578 12.7381 7.0517C13.1386 7.21762 13.5679 7.30301 14.0015 7.30301C14.8771 7.30281 15.7168 6.95479 16.3358 6.33549C16.9548 5.7162 17.3024 4.87637 17.3022 4.00076C17.302 3.12515 16.954 2.28548 16.3347 1.66647C15.7154 1.04746 14.8756 0.699813 14 0.700012H14.0015ZM3.5015 0.700012C3.06794 0.700012 2.63862 0.785408 2.23807 0.951324C1.83751 1.11724 1.47356 1.36043 1.16698 1.667C0.860411 1.97357 0.617225 2.33753 0.451309 2.73808C0.285393 3.13864 0.199997 3.56795 0.199997 4.00151C0.199997 4.43507 0.285393 4.86439 0.451309 5.26494C0.617225 5.6655 0.860411 6.02945 1.16698 6.33602C1.47356 6.6426 1.83751 6.88578 2.23807 7.0517C2.63862 7.21762 3.06794 7.30301 3.5015 7.30301C4.37711 7.30281 5.21678 6.95479 5.83579 6.33549C6.4548 5.7162 6.80245 4.87637 6.80225 4.00076C6.80205 3.12515 6.45402 2.28548 5.83473 1.66647C5.21544 1.04746 4.37561 0.699813 3.5 0.700012H3.5015ZM24.5015 0.700012C24.0679 0.700012 23.6386 0.785408 23.2381 0.951324C22.8375 1.11724 22.4736 1.36043 22.167 1.667C21.8604 1.97357 21.6172 2.33753 21.4513 2.73808C21.2854 3.13864 21.2 3.56795 21.2 4.00151C21.2 4.43507 21.2854 4.86439 21.4513 5.26494C21.6172 5.6655 21.8604 6.02945 22.167 6.33602C22.4736 6.6426 22.8375 6.88578 23.2381 7.0517C23.6386 7.21762 24.0679 7.30301 24.5015 7.30301C25.3771 7.30281 26.2168 6.95479 26.8358 6.33549C27.4548 5.7162 27.8024 4.87637 27.8022 4.00076C27.802 3.12515 27.454 2.28548 26.8347 1.66647C26.2154 1.04746 25.3756 0.699813 24.5 0.700012H24.5015Z" fill="#EEEEEE"/>
</svg>
