<svg width="26" height="26" viewBox="0 0 26 26" fill="none" xmlns="http://www.w3.org/2000/svg">
<path d="M10.9607 1.1471C11.4524 0.734718 12.09 0.506592 12.7509 0.506592C13.4118 0.506592 14.0494 0.734718 14.5411 1.1471L24.3625 9.38585C24.6417 9.62028 24.8651 9.90692 25.018 10.2272C25.1709 10.5474 25.2499 10.894 25.25 11.2447V23.006C25.25 23.6692 24.9678 24.3052 24.4655 24.7742C23.9631 25.2431 23.2818 25.5066 22.5714 25.5066H18.1071C17.3967 25.5066 16.7154 25.2431 16.2131 24.7742C15.7108 24.3052 15.4286 23.6692 15.4286 23.006V17.1712C15.4286 16.9501 15.3345 16.7381 15.1671 16.5817C14.9996 16.4254 14.7725 16.3376 14.5357 16.3376H10.9643C10.7275 16.3376 10.5004 16.4254 10.3329 16.5817C10.1655 16.7381 10.0714 16.9501 10.0714 17.1712V23.006C10.0714 23.6692 9.78922 24.3052 9.28689 24.7742C8.78456 25.2431 8.10326 25.5066 7.39286 25.5066H2.92857C2.21817 25.5066 1.53687 25.2431 1.03454 24.7742C0.532206 24.3052 0.25 23.6692 0.25 23.006V11.2447C0.25 10.5361 0.571428 9.86097 1.13929 9.38585L10.9607 1.1471V1.1471ZM13.3464 2.38741C13.1826 2.25011 12.9702 2.17416 12.75 2.17416C12.5298 2.17416 12.3174 2.25011 12.1536 2.38741L2.33214 10.6262C2.2391 10.7041 2.16464 10.7995 2.11357 10.906C2.06251 11.0126 2.03598 11.1279 2.03571 11.2447V23.006C2.03571 23.227 2.12978 23.439 2.29723 23.5954C2.46467 23.7517 2.69177 23.8395 2.92857 23.8395H7.39286C7.62966 23.8395 7.85676 23.7517 8.0242 23.5954C8.19165 23.439 8.28571 23.227 8.28571 23.006V17.1712C8.28571 16.5079 8.56792 15.8719 9.07025 15.4029C9.57258 14.934 10.2539 14.6705 10.9643 14.6705H14.5357C15.2461 14.6705 15.9274 14.934 16.4298 15.4029C16.9321 15.8719 17.2143 16.5079 17.2143 17.1712V23.006C17.2143 23.227 17.3084 23.439 17.4758 23.5954C17.6432 23.7517 17.8703 23.8395 18.1071 23.8395H22.5714C22.8082 23.8395 23.0353 23.7517 23.2028 23.5954C23.3702 23.439 23.4643 23.227 23.4643 23.006V11.2447C23.464 11.1279 23.4375 11.0126 23.3864 10.906C23.3354 10.7995 23.2609 10.7041 23.1679 10.6262L13.3464 2.38741Z" fill="#9ECFA7"/>
</svg>
