<svg width="28" height="28" viewBox="0 0 28 28" fill="none" xmlns="http://www.w3.org/2000/svg">
<path d="M14 0.875C6.75195 0.875 0.875 6.75195 0.875 14C0.875 21.248 6.75195 27.125 14 27.125C21.248 27.125 27.125 21.248 27.125 14C27.125 6.75195 21.248 0.875 14 0.875ZM14.9375 20.3281C14.9375 20.457 14.832 20.5625 14.7031 20.5625H13.2969C13.168 20.5625 13.0625 20.457 13.0625 20.3281V12.3594C13.0625 12.2305 13.168 12.125 13.2969 12.125H14.7031C14.832 12.125 14.9375 12.2305 14.9375 12.3594V20.3281ZM14 10.25C13.632 10.2425 13.2816 10.091 13.024 9.82812C12.7664 9.56522 12.6222 9.21182 12.6222 8.84375C12.6222 8.47568 12.7664 8.12228 13.024 7.85938C13.2816 7.59647 13.632 7.44501 14 7.4375C14.368 7.44501 14.7184 7.59647 14.976 7.85938C15.2336 8.12228 15.3778 8.47568 15.3778 8.84375C15.3778 9.21182 15.2336 9.56522 14.976 9.82812C14.7184 10.091 14.368 10.2425 14 10.25Z" fill="#9ECFA7"/>
</svg>
