<svg width="77" height="77" viewBox="0 0 77 77" fill="none" xmlns="http://www.w3.org/2000/svg">
<path d="M25.6666 54.5417V22.4584H35.2916C44.1514 22.4584 51.3333 29.6402 51.3333 38.5C51.3333 47.3599 44.1514 54.5417 35.2916 54.5417H25.6666Z" fill="#9ECFA7"/>
<path fill-rule="evenodd" clip-rule="evenodd" d="M77 0H0V77H77V0ZM22.4583 16.0417C21.6074 16.0417 20.7914 16.3797 20.1897 16.9814C19.588 17.583 19.25 18.3991 19.25 19.25V57.75C19.25 58.6009 19.588 59.417 20.1897 60.0186C20.7914 60.6203 21.6074 60.9583 22.4583 60.9583H35.2917C47.6951 60.9583 57.75 50.9034 57.75 38.5C57.75 26.0966 47.6951 16.0417 35.2917 16.0417H22.4583Z" fill="#9ECFA7"/>
</svg>
