<svg width="30" height="30" viewBox="0 0 30 30" fill="none" xmlns="http://www.w3.org/2000/svg">
<path d="M15 0.9375C7.23375 0.9375 0.9375 7.23375 0.9375 15C0.9375 22.7653 7.23375 29.0625 15 29.0625C22.7663 29.0625 29.0625 22.7653 29.0625 15C29.0625 7.23375 22.7663 0.9375 15 0.9375ZM26.25 15C26.2529 17.4982 25.4204 19.9257 23.8847 21.8963L19.4414 17.4525V16.8211C20.5237 16.8211 21.4008 16.0064 21.4008 15C21.4008 13.9931 20.5237 13.178 19.4414 13.178V6.50578C19.4414 6.27797 19.2427 6.09375 18.9984 6.09375C18.7533 6.09375 18.5555 6.27797 18.5555 6.50578V6.71906L12.7744 10.785L8.10422 6.11437C10.0747 4.57915 12.502 3.7469 15 3.75C21.2128 3.75 26.25 8.78625 26.25 15ZM3.75 15C3.74689 12.5017 4.57931 10.074 6.11484 8.10328L9.39328 11.3817H9.03234C8.44734 11.3817 7.97297 11.8219 7.97297 12.3661V17.633C7.97297 18.1767 8.44734 18.6183 9.03234 18.6183H11.9245L18.555 23.2809V23.4942C18.555 23.7211 18.7528 23.9062 18.998 23.9062C19.2422 23.9062 19.4409 23.7211 19.4409 23.4942V21.4298L21.8958 23.8847C19.9255 25.4204 17.4981 26.253 15 26.25C8.78625 26.25 3.75 21.2128 3.75 15Z" fill="#EEEEEE"/>
</svg>
