<svg width="27" height="31" viewBox="0 0 27 31" fill="none" xmlns="http://www.w3.org/2000/svg">
<path d="M13.4999 15.3112C17.4519 15.3112 20.6555 12.1075 20.6555 8.15559C20.6555 4.20366 17.4519 1 13.4999 1C9.54802 1 6.34436 4.20366 6.34436 8.15559C6.34436 12.1075 9.54802 15.3112 13.4999 15.3112Z" stroke="#9ECFA7" stroke-width="2"/>
<path d="M20.6556 18.1735H21.1593C22.2056 18.1738 23.2157 18.5561 24 19.2486C24.7842 19.9412 25.2886 20.8963 25.4183 21.9344L25.9779 26.4053C26.0282 26.808 25.9923 27.2169 25.8726 27.6047C25.7528 27.9925 25.5519 28.3504 25.2833 28.6547C25.0146 28.9589 24.6843 29.2026 24.3143 29.3694C23.9443 29.5362 23.543 29.6225 23.1371 29.6224H3.86286C3.45697 29.6225 3.0557 29.5362 2.68569 29.3694C2.31567 29.2026 1.98538 28.9589 1.71672 28.6547C1.44806 28.3504 1.24719 27.9925 1.12743 27.6047C1.00767 27.2169 0.97176 26.808 1.02209 26.4053L1.58023 21.9344C1.71002 20.8958 2.21481 19.9403 2.99965 19.2477C3.7845 18.5551 4.79534 18.1731 5.84209 18.1735H6.34441" stroke="#9ECFA7" stroke-width="2" stroke-linecap="round" stroke-linejoin="round"/>
</svg>
