<svg width="25" height="26" viewBox="0 0 25 26" fill="none" xmlns="http://www.w3.org/2000/svg">
<path d="M24.0625 1.45312C24.0625 1.08016 23.9143 0.722479 23.6506 0.458756C23.3869 0.195033 23.0292 0.046875 22.6562 0.046875C22.2833 0.046875 21.9256 0.195033 21.6619 0.458756C21.3982 0.722479 21.25 1.08016 21.25 1.45312V10.5881L3.62406 0.361875C2.10531 -0.515625 0.15625 0.5475 0.15625 2.31938V23.0869C0.15625 24.8588 2.1025 25.9275 3.62406 25.0472L21.25 14.8209V23.9531C21.25 24.3261 21.3982 24.6838 21.6619 24.9475C21.9256 25.2112 22.2833 25.3594 22.6562 25.3594C23.0292 25.3594 23.3869 25.2112 23.6506 24.9475C23.9143 24.6838 24.0625 24.3261 24.0625 23.9531V1.45312Z" fill="#EEEEEE"/>
</svg>
