<svg width="70" height="70" viewBox="0 0 70 70" fill="none" xmlns="http://www.w3.org/2000/svg">
<path d="M35 0C54.3281 0 70 15.6719 70 35C70 54.3281 54.3281 70 35 70C15.6719 70 0 54.3281 0 35C0 15.6719 15.6719 0 35 0ZM41.25 46.875C41.25 47.2188 41.5312 47.5 41.875 47.5H45.625C45.9688 47.5 46.25 47.2188 46.25 46.875V23.125C46.25 22.7812 45.9688 22.5 45.625 22.5H41.875C41.5312 22.5 41.25 22.7812 41.25 23.125V46.875ZM23.75 46.875C23.75 47.2188 24.0312 47.5 24.375 47.5H28.125C28.4688 47.5 28.75 47.2188 28.75 46.875V23.125C28.75 22.7812 28.4688 22.5 28.125 22.5H24.375C24.0312 22.5 23.75 22.7812 23.75 23.125V46.875Z" fill="#AAAAAA"/>
</svg>
