<svg width="30" height="30" viewBox="0 0 30 30" fill="none" xmlns="http://www.w3.org/2000/svg">
<path d="M11.25 5.625H9.375C8.87772 5.625 8.40081 5.82254 8.04918 6.17417C7.69754 6.52581 7.5 7.00272 7.5 7.5V22.5C7.5 22.9973 7.69754 23.4742 8.04918 23.8258C8.40081 24.1775 8.87772 24.375 9.375 24.375H11.25C11.7473 24.375 12.2242 24.1775 12.5758 23.8258C12.9275 23.4742 13.125 22.9973 13.125 22.5V7.5C13.125 7.00272 12.9275 6.52581 12.5758 6.17417C12.2242 5.82254 11.7473 5.625 11.25 5.625Z" fill="#EEEEEE"/>
<path d="M20.625 5.625H18.75C18.2527 5.625 17.7758 5.82254 17.4242 6.17417C17.0725 6.52581 16.875 7.00272 16.875 7.5V22.5C16.875 22.9973 17.0725 23.4742 17.4242 23.8258C17.7758 24.1775 18.2527 24.375 18.75 24.375H20.625C21.1223 24.375 21.5992 24.1775 21.9508 23.8258C22.3025 23.4742 22.5 22.9973 22.5 22.5V7.5C22.5 7.00272 22.3025 6.52581 21.9508 6.17417C21.5992 5.82254 21.1223 5.625 20.625 5.625V5.625Z" fill="#EEEEEE"/>
</svg>
