<svg width="30" height="30" viewBox="0 0 30 30" fill="none" xmlns="http://www.w3.org/2000/svg">
<path d="M26.8 13.4L7.45 3.725C7.18896 3.60405 6.90181 3.55032 6.6147 3.56869C6.32759 3.58706 6.04963 3.67695 5.80613 3.83017C5.56263 3.98339 5.36132 4.19509 5.22052 4.44598C5.07973 4.69687 5.00392 4.97899 5 5.26666V24.6083C4.99756 24.9036 5.07134 25.1946 5.2142 25.453C5.35707 25.7115 5.56419 25.9287 5.81555 26.0837C6.0669 26.2387 6.35399 26.3262 6.64907 26.3378C6.94415 26.3495 7.23723 26.2848 7.5 26.15L26.8 16.475C27.0859 16.3315 27.3262 16.1113 27.4942 15.8391C27.6622 15.5668 27.7511 15.2532 27.7511 14.9333C27.7511 14.6134 27.6622 14.2999 27.4942 14.0276C27.3262 13.7554 27.0859 13.5352 26.8 13.3917V13.4Z" fill="#EEEEEE"/>
</svg>
