<svg width="71" height="71" viewBox="0 0 71 71" fill="none" xmlns="http://www.w3.org/2000/svg">
<path d="M35.8766 0.938293C16.5484 0.938293 0.876556 16.6102 0.876556 35.9383C0.876556 55.2664 16.5484 70.9383 35.8766 70.9383C55.2047 70.9383 70.8766 55.2664 70.8766 35.9383C70.8766 16.6102 55.2047 0.938293 35.8766 0.938293ZM47.1344 36.4774L30.0719 48.8914C29.9783 48.9586 29.8681 48.9988 29.7532 49.0074C29.6383 49.016 29.5233 48.9928 29.4208 48.9403C29.3182 48.8879 29.2322 48.8081 29.172 48.7099C29.1118 48.6117 29.0799 48.4988 29.0797 48.3836V23.5711C29.0793 23.4557 29.1109 23.3424 29.1709 23.2439C29.231 23.1453 29.3172 23.0653 29.4199 23.0127C29.5227 22.9601 29.638 22.937 29.753 22.9459C29.8681 22.9549 29.9785 22.9955 30.0719 23.0633L47.1344 35.4695C47.215 35.5266 47.2807 35.6021 47.3261 35.6897C47.3715 35.7774 47.3952 35.8747 47.3952 35.9734C47.3952 36.0722 47.3715 36.1695 47.3261 36.2571C47.2807 36.3448 47.215 36.4203 47.1344 36.4774Z" fill="#9ECFA7"/>
</svg>
