<svg width="25" height="26" viewBox="0 0 25 26" fill="none" xmlns="http://www.w3.org/2000/svg">
<path d="M0.75 23.9531C0.75 24.3261 0.898157 24.6838 1.16188 24.9475C1.4256 25.2112 1.78329 25.3594 2.15625 25.3594C2.52921 25.3594 2.8869 25.2112 3.15062 24.9475C3.41434 24.6838 3.5625 24.3261 3.5625 23.9531L3.5625 14.8181L21.1884 25.0444C22.7072 25.9219 24.6563 24.8587 24.6563 23.0869L24.6563 2.31938C24.6563 0.547503 22.71 -0.521246 21.1884 0.359066L3.5625 10.5853L3.5625 1.45313C3.5625 1.08017 3.41435 0.722481 3.15062 0.458757C2.8869 0.195034 2.52921 0.0468769 2.15625 0.0468768C1.78329 0.0468768 1.42561 0.195034 1.16188 0.458757C0.898159 0.722481 0.750002 1.08017 0.750002 1.45313L0.75 23.9531Z" fill="#EEEEEE"/>
</svg>
