<svg width="30" height="30" viewBox="0 0 30 30" fill="none" xmlns="http://www.w3.org/2000/svg">
<path d="M29.7477 25.4105C29.7316 25.4345 29.7141 25.4572 29.6968 25.4799C29.6893 25.4896 29.6826 25.5001 29.6747 25.5097L26.3413 29.6006C26.133 29.8563 25.8503 30 25.5557 30C25.261 30 24.9783 29.8563 24.77 29.6006C24.5616 29.3448 24.4445 28.998 24.4445 28.6363C24.4445 28.2747 24.5616 27.9278 24.77 27.6721L26.2065 25.9091H24.5745C22.983 25.9071 21.4148 25.44 19.9997 24.5462C18.5846 23.6525 17.3633 22.3579 16.437 20.7697L10.6437 10.8153C9.92316 9.58009 8.97327 8.57323 7.87263 7.87813C6.77199 7.18303 5.55227 6.81969 4.31446 6.8182H1.11112C0.816429 6.8182 0.533813 6.67453 0.325438 6.4188C0.117064 6.16307 0 5.81623 0 5.45457C0 5.09291 0.117064 4.74606 0.325438 4.49033C0.533813 4.2346 0.816429 4.09093 1.11112 4.09093H4.31446C5.90595 4.09287 7.47417 4.56004 8.88927 5.45377C10.3044 6.3475 11.5257 7.64207 12.452 9.2303L18.2453 19.1846C18.9658 20.4199 19.9157 21.4268 21.0164 22.1219C22.117 22.817 23.3367 23.1803 24.5745 23.1818H26.2065L24.77 21.4188C24.5616 21.1631 24.4445 20.8162 24.4445 20.4545C24.4445 20.0929 24.5616 19.746 24.77 19.4903C24.9783 19.2345 25.261 19.0909 25.5557 19.0909C25.8503 19.0909 26.133 19.2345 26.3413 19.4903L29.6747 23.5812C29.6826 23.5907 29.6893 23.6013 29.6968 23.611C29.7141 23.6337 29.7315 23.6563 29.7477 23.6804C29.7604 23.6991 29.7715 23.7191 29.7832 23.7385C29.7929 23.7549 29.8033 23.7705 29.8125 23.7874C29.8243 23.8091 29.8347 23.8314 29.8452 23.8536C29.853 23.8697 29.8612 23.8853 29.8684 23.9018C29.8782 23.924 29.8864 23.9465 29.8948 23.969C29.9018 23.987 29.909 24.0046 29.9153 24.023C29.9225 24.0445 29.9284 24.0665 29.9347 24.0884C29.9407 24.1086 29.9469 24.1285 29.9521 24.149C29.9575 24.1711 29.9615 24.1933 29.9659 24.2154C29.9702 24.2366 29.9751 24.2572 29.9784 24.2785C29.9826 24.3042 29.9853 24.3303 29.9882 24.3564C29.9902 24.3745 29.993 24.3922 29.9946 24.4104C30.0018 24.5002 30.0018 24.5907 29.9946 24.6804C29.9932 24.6987 29.9902 24.7164 29.9882 24.7345C29.9853 24.7605 29.9826 24.7866 29.9784 24.8124C29.9751 24.8337 29.9702 24.8543 29.9659 24.8754C29.9615 24.8976 29.9575 24.9197 29.9521 24.9419C29.9469 24.9624 29.9407 24.9823 29.9348 25.0024C29.9284 25.0244 29.9225 25.0464 29.9154 25.0679C29.909 25.0863 29.9016 25.1038 29.8948 25.1219C29.8864 25.1444 29.8782 25.1669 29.8684 25.1891C29.8612 25.2056 29.853 25.2211 29.8452 25.2373C29.8347 25.2595 29.8244 25.2818 29.8125 25.3034C29.8033 25.3203 29.793 25.336 29.7833 25.3524C29.7715 25.3718 29.7604 25.3916 29.7477 25.4105ZM16.5296 11.4172C16.6484 11.5214 16.7826 11.5958 16.9248 11.6363C17.067 11.6767 17.2142 11.6824 17.3582 11.653C17.5021 11.6235 17.64 11.5595 17.7637 11.4647C17.8875 11.3698 17.9949 11.246 18.0797 11.1002L18.2453 10.8155C18.9658 9.58023 19.9157 8.57333 21.0163 7.87821C22.117 7.18308 23.3367 6.81971 24.5745 6.8182H26.2065L24.77 8.58121C24.5616 8.83695 24.4445 9.1838 24.4445 9.54547C24.4445 9.90713 24.5616 10.254 24.77 10.5097C24.9783 10.7655 25.261 10.9091 25.5557 10.9091C25.8503 10.9091 26.133 10.7655 26.3413 10.5097L29.6747 6.41883C29.6826 6.40928 29.6893 6.39871 29.6968 6.389C29.7141 6.36633 29.7315 6.34366 29.7477 6.31962C29.7604 6.30087 29.7715 6.28093 29.7832 6.2615C29.7929 6.24513 29.8033 6.22945 29.8125 6.21258C29.8243 6.19093 29.8347 6.1686 29.8452 6.14644C29.853 6.13025 29.8612 6.11474 29.8684 6.0982C29.8782 6.07604 29.8864 6.05354 29.8948 6.03104C29.9018 6.01298 29.909 5.99542 29.9153 5.97701C29.9225 5.95553 29.9284 5.93354 29.9347 5.91155C29.9407 5.89144 29.9469 5.8715 29.9521 5.85104C29.9575 5.82888 29.9615 5.80673 29.9659 5.78457C29.9702 5.76343 29.9751 5.74281 29.9784 5.7215C29.9826 5.69576 29.9854 5.66968 29.9882 5.6436C29.9902 5.62553 29.993 5.60781 29.9946 5.58957C30.0018 5.49979 30.0018 5.40935 29.9946 5.31957C29.9932 5.30133 29.9902 5.2836 29.9882 5.26553C29.9854 5.23945 29.9826 5.21337 29.9784 5.18764C29.9751 5.16633 29.9702 5.1457 29.9659 5.12457C29.9615 5.10241 29.9575 5.08025 29.9521 5.05809C29.9469 5.03764 29.9407 5.01769 29.9348 4.99758C29.9284 4.97559 29.9225 4.9536 29.9154 4.93213C29.909 4.91372 29.9018 4.89616 29.8948 4.87809C29.8864 4.85559 29.8782 4.83309 29.8684 4.81093C29.8612 4.7944 29.853 4.77889 29.8452 4.76269C29.8347 4.74054 29.8244 4.71821 29.8125 4.69656C29.8033 4.67968 29.793 4.664 29.7833 4.64764C29.7715 4.62821 29.7604 4.60843 29.7477 4.58951C29.7316 4.56548 29.7141 4.54281 29.6968 4.52014C29.6893 4.51042 29.6826 4.49985 29.6747 4.49031L26.3413 0.399409C26.2382 0.272781 26.1157 0.172334 25.9809 0.103803C25.8461 0.0352721 25.7016 0 25.5557 0C25.4097 0 25.2652 0.0352721 25.1304 0.103803C24.9956 0.172334 24.8731 0.272781 24.77 0.399409C24.6668 0.526037 24.5849 0.676367 24.5291 0.841815C24.4732 1.00726 24.4445 1.18459 24.4445 1.36367C24.4445 1.54275 24.4732 1.72007 24.5291 1.88552C24.5849 2.05097 24.6668 2.2013 24.77 2.32793L26.2065 4.09093H24.5745C22.983 4.09287 21.4148 4.56004 19.9997 5.45377C18.5846 6.3475 17.3633 7.64207 16.437 9.2303L16.2713 9.51513C16.1865 9.66084 16.1259 9.82563 16.0929 10.0001C16.06 10.1746 16.0554 10.3553 16.0794 10.5319C16.1034 10.7086 16.1555 10.8777 16.2327 11.0296C16.31 11.1816 16.4109 11.3132 16.5296 11.4172ZM12.3592 18.5828C12.2405 18.4786 12.1062 18.4042 11.9641 18.3638C11.8219 18.3234 11.6747 18.3177 11.5308 18.3472C11.3868 18.3766 11.249 18.4406 11.1252 18.5354C11.0015 18.6302 10.8941 18.7541 10.8093 18.8998L10.6437 19.1845C9.92317 20.4198 8.97329 21.4267 7.87265 22.1218C6.77201 22.8169 5.55229 23.1803 4.31446 23.1818H1.11112C0.816429 23.1818 0.533813 23.3255 0.325438 23.5812C0.117064 23.8369 0 24.1838 0 24.5454C0 24.9071 0.117064 25.2539 0.325438 25.5097C0.533813 25.7654 0.816429 25.9091 1.11112 25.9091H4.31446C5.90595 25.9071 7.47417 25.44 8.88927 24.5462C10.3044 23.6525 11.5257 22.3579 12.452 20.7697L12.6177 20.4849C12.7025 20.3392 12.7631 20.1744 12.7961 19.9999C12.829 19.8254 12.8336 19.6447 12.8096 19.4681C12.7856 19.2914 12.7335 19.1223 12.6562 18.9704C12.579 18.8184 12.478 18.6868 12.3592 18.5828Z" fill="#EEEEEE"/>
</svg>
